<?xml version="1.0" encoding="utf-8"?>
<!-- Generator: Adobe Illustrator 21.0.0, SVG Export Plug-In . SVG Version: 6.00 Build 0)  -->
<svg version="1.1" id="Layer_1" xmlns="http://www.w3.org/2000/svg" xmlns:xlink="http://www.w3.org/1999/xlink" x="0px" y="0px"
	 viewBox="0 0 60 60" style="enable-background:new 0 0 60 60;" xml:space="preserve">
<style type="text/css">
	.st0{fill:#FFD1C3;}
	.st1{fill:#FFFFFF;}
</style>
<circle class="st0" cx="30" cy="30" r="30"/>
<path class="st1" d="M45.3,19.2C44,20,42.6,20.5,41,20.8c-1.2-1.3-2.9-2.1-4.8-2.1c-3.7,0-6.6,2.9-6.6,6.5c0,0.5,0.1,1,0.2,1.5
	c-5.5-0.3-10.4-2.9-13.7-6.8c-0.6,1-0.9,2.1-0.9,3.3c0,2.3,1.2,4.3,2.9,5.4c-1.1,0-2.1-0.3-3-0.8v0.1c0,3.2,2.3,5.8,5.3,6.4
	c-0.6,0.1-1.1,0.2-1.7,0.2c-0.4,0-0.8,0-1.2-0.1c0.8,2.6,3.3,4.5,6.2,4.5c-2.3,1.7-5.1,2.8-8.2,2.8c-0.5,0-1.1,0-1.6-0.1
	c2.9,1.8,6.4,2.9,10.2,2.9c12.2,0,18.9-9.9,18.9-18.6c0-0.3,0-0.6,0-0.8c1.3-0.9,2.4-2.1,3.3-3.4c-1.2,0.5-2.5,0.9-3.8,1
	C43.7,22,44.8,20.7,45.3,19.2"/>
</svg>
