<?xml version="1.0" encoding="utf-8"?>
<!-- Generator: Adobe Illustrator 21.0.0, SVG Export Plug-In . SVG Version: 6.00 Build 0)  -->
<svg version="1.1" id="Layer_1" xmlns="http://www.w3.org/2000/svg" xmlns:xlink="http://www.w3.org/1999/xlink" x="0px" y="0px"
	 viewBox="0 0 60 60" style="enable-background:new 0 0 60 60;" xml:space="preserve">
<style type="text/css">
	.st0{fill:#FFD1C3;}
	.st1{fill:#FFFFFF;}
</style>
<circle class="st0" cx="30" cy="30" r="30"/>
<g>
	<g>
		<path class="st1" d="M24.1,45.7c0,0.2,0.3,0.3,0.4,0.1c0.2-0.2,2.6-3.1,3.4-6c0.2-0.8,1.3-5,1.3-5c0.7,1.2,2.6,2.3,4.6,2.3
			c6.1,0,10.2-5.4,10.2-12.5c0-5.4-4.7-10.5-12-10.5c-9,0-13.5,6.2-13.5,11.4c0,3.1,1.2,5.9,3.9,7c0.4,0.2,0.8,0,0.9-0.5
			c0.1-0.3,0.3-1.1,0.4-1.5c0.1-0.5,0.1-0.6-0.3-1c-0.8-0.9-1.2-2-1.2-3.6c0-4.6,3.6-8.8,9.3-8.8c5.1,0,7.9,3,7.9,7
			c0,5.3-2.4,9.7-6,9.7c-2,0-3.5-1.6-3-3.5c0.6-2.3,1.7-4.8,1.7-6.5c0-1.5-0.8-2.7-2.5-2.7c-2,0-3.6,2-3.6,4.7
			c0,1.7,0.6,2.9,0.6,2.9s-2.1,8.5-2.4,10C23.4,41.7,24,45.3,24.1,45.7"/>
	</g>
</g>
</svg>
