<?xml version="1.0" encoding="utf-8"?>
<!-- Generator: Adobe Illustrator 21.0.0, SVG Export Plug-In . SVG Version: 6.00 Build 0)  -->
<svg version="1.1" id="Layer_1" xmlns="http://www.w3.org/2000/svg" xmlns:xlink="http://www.w3.org/1999/xlink" x="0px" y="0px"
	 viewBox="0 0 446.5 86" style="enable-background:new 0 0 446.5 86;" xml:space="preserve">
<style type="text/css">
	.st0{fill:#3C5161;}
</style>
<g>
	<path class="st0" d="M40.5,41.2H18.4v-1.3c4.5-0.3,6.9-0.9,6.9-7.8v-8.9L11.3,7.3c-3.6-4-5.7-6-9.7-6H0V0h25.8v1.3h-1.1
		c-2.9,0.1-4.2,0.9-4.2,2.7c0,1.2,1,2.5,1.8,3.2l11.2,12.9L43.6,9c1.2-1.3,2-2.7,2-4.6c0-2.3-2.3-3-4.6-3h-5.4V0h24.9v1.3h-2.3
		c-5.2,0-7.5,1.5-12,6.6L33.6,22.1v10c0,6.9,2.4,7.5,6.9,7.8V41.2z"/>
	<path class="st0" d="M114.1,41.2h-43v-1.3c5.1,0,9.1-0.7,9.1-6.7V7.5c0-5.5-4-6.2-9.1-6.2V0h42.3v11.1h-1.2
		c-2.6-5.3-6.4-9.7-15.8-9.7h-7.9V18h6c6.2-0.1,8.1-3.6,9.2-5.8h1.2v13.4h-1.2c-0.9-3.2-3-6.3-9.2-6.3h-6v20.6h7.9
		c8.1,0,13.6-6.2,16.6-12.2h1.2V41.2z"/>
	<path class="st0" d="M169.7,42.9l-32-32.7v20.1c0,7.9,2.4,9.6,8.4,9.6h2.3v1.3h-22.3v-1.3h2.1c6,0,8.2-2.9,8.2-9.6V8.9L132,4.4
		c-1.2-1.2-2-3.1-5.9-3.1V0h13l29.3,30V14.2c0-9.1-2.8-12.9-8.1-12.9h-2.1V0h22.3v1.3h-2.3c-4.8,0-8.4,2.4-8.4,12.9V42.9z"/>
	<path class="st0" d="M234,42.9l-32-32.7v20.1c0,7.9,2.4,9.6,8.4,9.6h2.3v1.3h-22.3v-1.3h2.1c6,0,8.2-2.9,8.2-9.6V8.9l-4.4-4.5
		c-1.2-1.2-2-3.1-5.9-3.1V0h13l29.3,30V14.2c0-9.1-2.8-12.9-8.1-12.9h-2.1V0h22.3v1.3h-2.3c-4.8,0-8.4,2.4-8.4,12.9V42.9z"/>
	<path class="st0" d="M277.7,41.2h-22.5v-1.3c4.7-0.3,7.1-0.9,7.1-7.8v-23c0-6.9-2.5-7.5-7.1-7.8V0h22.5v1.3
		c-4.7,0.3-7.1,0.9-7.1,7.8v23c0,6.9,2.4,7.5,7.1,7.8V41.2z"/>
	<path class="st0" d="M310.6,41.2h-22.1v-1.3c4.5-0.3,6.9-0.9,6.9-7.8v-23c0-6.9-2.5-7.5-6.9-7.8V0h28.3c10.2,0,14.9,5.7,14.9,10.7
		c0,5.4-6.5,10.9-16.7,10.9h-11.3v10.6c0,6.9,2.4,7.5,6.9,7.8V41.2z M313.3,20.2c6,0,9.6-2.6,9.6-9.8c0-4.2-1.7-9.1-8.7-9.1h-10.5
		v18.9H313.3z"/>
	<path class="st0" d="M386.6,41.2h-43v-1.3c5.1,0,9.1-0.7,9.1-6.7V7.5c0-5.5-4-6.2-9.1-6.2V0h42.3v11.1h-1.2
		c-2.6-5.3-6.4-9.7-15.8-9.7H361V18h6c6.2-0.1,8.1-3.6,9.2-5.8h1.2v13.4h-1.2c-0.9-3.2-3-6.3-9.2-6.3h-6v20.6h7.9
		c8.1,0,13.6-6.2,16.6-12.2h1.2V41.2z"/>
	<path class="st0" d="M421.4,41.2h-22.1v-1.3c4.5-0.3,6.9-0.9,6.9-7.8v-23c0-6.9-2.5-7.5-6.9-7.8V0h29.4c10.1,0,13.8,5.3,13.8,9.7
		c0,5.3-2.8,8.7-7.6,10.6c-2.3,0.8-5.6,0.8-9.1,0.8h-11.3v11c0,6.9,2.4,7.5,6.9,7.8V41.2z M424.1,19.8c6,0,9.6-2.6,9.6-9.8
		c0-3.9-1.7-8.7-8.7-8.7h-10.5v18.5H424.1z M446,38.9c0.2,0,0.4,0.1,0.4,0.2c0,1.5-3.6,2.7-6.2,2.7c-3,0-5.2-1.4-7.7-3.6
		c-2.9-2.6-5.2-9.6-7.3-13c-1.4-2.4-2.1-2.5-2.1-3.1c0-0.4,1-0.6,1.6-0.6c5.6,0,8.3,3.4,11.8,8.5c2.9,4.3,5.4,8.9,8.4,8.9H446z"/>
</g>
<g>
	<path class="st0" d="M181.7,75.4h-0.9c-0.3-0.7-0.6-1.3-0.8-1.6s-0.5-0.5-0.8-0.6s-0.7-0.1-1.3-0.1h-1.4l-1.5,4.9h0.7
		c0.6,0,1.1-0.1,1.4-0.2c0.3-0.1,0.6-0.3,0.8-0.6c0.2-0.3,0.3-0.7,0.5-1.2h1l-1.6,5.2h-1c0.2-0.5,0.2-0.9,0.2-1.2
		c0-0.5-0.2-0.8-0.5-0.9s-0.7-0.2-1.1-0.2h-0.6l-1.2,3.8c-0.1,0.3-0.1,0.5-0.1,0.8c0,0.2,0.1,0.3,0.2,0.5c0.1,0.1,0.3,0.2,0.7,0.3
		c0.3,0.1,0.8,0.1,1.3,0.1c1.2,0,2-0.2,2.7-0.7c0.6-0.5,1.1-1.1,1.6-1.9h1l-1.1,3.6h-10.6l0.3-0.9c0.5,0,0.8-0.1,1-0.4
		c0.2-0.3,0.4-0.6,0.5-1.1l2.5-8.3c0.1-0.4,0.2-0.6,0.2-0.8c0-0.3-0.1-0.6-0.4-0.7c-0.2-0.1-0.5-0.2-0.9-0.2l0.3-0.9h9.2L181.7,75.4
		z"/>
	<path class="st0" d="M195.4,72.2l-0.6,4h-0.9c-0.1-0.5-0.2-0.9-0.3-1.4c-0.2-0.5-0.4-0.9-0.8-1.3s-1-0.6-1.7-0.6
		c-0.6,0-1.1,0.2-1.5,0.5c-0.4,0.3-0.6,0.8-0.6,1.3c0,0.4,0.1,0.7,0.3,1s0.4,0.6,0.7,1c0.3,0.3,0.7,0.7,1.1,1
		c0.8,0.7,1.4,1.3,1.9,1.9s0.6,1.3,0.6,2.1c0,0.7-0.2,1.3-0.5,1.9c-0.3,0.6-0.8,1.1-1.5,1.5s-1.4,0.6-2.3,0.6
		c-0.4,0-0.7-0.1-1.1-0.2s-0.7-0.3-1.1-0.5c-0.3-0.2-0.7-0.5-1-0.8c-0.1,0.1-0.4,0.5-0.6,1.1h-0.9l0.6-4.6h0.9
		c0,0.7,0.1,1.4,0.4,1.9c0.2,0.5,0.5,0.9,0.8,1.2c0.3,0.3,0.7,0.5,1.1,0.7s0.7,0.2,1.1,0.2c0.4,0,0.7-0.1,1-0.3s0.5-0.4,0.7-0.7
		s0.3-0.6,0.3-1c0-0.4-0.1-0.7-0.2-0.9s-0.3-0.6-0.6-0.8c-0.3-0.3-0.7-0.7-1.4-1.3c-0.8-0.8-1.4-1.4-1.7-2c-0.3-0.6-0.5-1.1-0.5-1.7
		c0-0.7,0.2-1.3,0.6-1.9s0.9-1.1,1.5-1.4c0.6-0.4,1.3-0.5,2-0.5c1.1,0,2,0.4,2.9,1.3c0-0.1,0.1-0.1,0.2-0.2c0.1-0.1,0.1-0.2,0.2-0.3
		c0.1-0.1,0.2-0.3,0.3-0.5H195.4z"/>
	<path class="st0" d="M212.2,72.2l-1.2,3.8h-0.9c0.1-0.3,0.1-0.6,0.1-0.9c0-0.8-0.2-1.4-0.6-1.6s-0.8-0.3-1.4-0.3h-1.2l-2.9,9.6
		c-0.1,0.4-0.2,0.7-0.2,0.9c0,0.4,0.1,0.6,0.4,0.7c0.3,0.1,0.5,0.2,0.8,0.2h0.5l-0.3,0.9h-6.6l0.3-0.9h0.3c0.7,0,1.1-0.1,1.3-0.3
		c0.2-0.2,0.4-0.6,0.6-1.2l3-9.9h-0.7h-0.3c-0.7,0-1.3,0.2-1.9,0.5c-0.6,0.3-1.2,1.1-1.7,2.3h-0.9l1.2-3.8H212.2z"/>
	<path class="st0" d="M214.4,84.4c0,0.3-0.1,0.6-0.4,0.9s-0.6,0.4-0.9,0.4s-0.6-0.1-0.9-0.4s-0.4-0.6-0.4-0.9c0-0.2,0.1-0.4,0.2-0.6
		c0.1-0.2,0.3-0.3,0.5-0.5c0.2-0.1,0.4-0.2,0.6-0.2c0.4,0,0.7,0.1,0.9,0.4S214.4,84.1,214.4,84.4z"/>
	<path class="st0" d="M235.3,75.2c0,0.7-0.2,1.4-0.5,2s-0.8,1.3-1.4,1.9c-0.6,0.6-1.2,1.2-1.9,1.7s-1.9,1.4-3.9,2.8h5.4l-0.8,2.5
		h-0.9c0.1-0.1,0.1-0.2,0.1-0.3c0-0.2-0.2-0.3-0.5-0.3h-5.4l0.4-1.3c0.5-0.4,0.9-0.7,1.2-1c0.3-0.3,0.7-0.6,1.1-1
		c0.5-0.4,0.9-0.9,1.4-1.3c0.4-0.4,0.9-0.9,1.3-1.3c0.6-0.7,1.1-1.4,1.5-2.2s0.6-1.5,0.6-2.3c0-0.4-0.1-0.7-0.2-1
		c-0.1-0.3-0.3-0.5-0.6-0.7s-0.6-0.2-1-0.2c-0.6,0-1,0.1-1.3,0.4s-0.4,0.6-0.4,0.9c0,0.4,0.2,0.7,0.6,1.1c0.1,0.1,0.1,0.1,0.2,0.2
		c0,0.1,0.1,0.1,0.1,0.1c0,0.1-0.1,0.2-0.3,0.3l-0.7,0.4c-0.1,0.1-0.3,0.1-0.4,0.1c-0.2,0-0.4-0.2-0.6-0.5c-0.3-0.3-0.4-0.7-0.4-1.2
		c0-0.4,0.1-0.9,0.4-1.3c0.3-0.4,0.7-0.7,1.2-1s1.2-0.4,1.9-0.4c1.2,0,2.2,0.3,2.8,0.8S235.3,74.3,235.3,75.2z"/>
	<path class="st0" d="M247.5,75.5c0,0.7-0.1,1.6-0.4,2.8s-0.6,2.3-1.1,3.4c-0.5,1.1-1.1,2.1-1.9,2.9c-0.8,0.8-1.8,1.2-2.8,1.2
		c-1.1,0-1.9-0.4-2.3-1.1s-0.6-1.5-0.6-2.3c0-0.9,0.2-2,0.5-3.4c0.4-1.4,0.9-2.8,1.6-4c0.3-0.4,0.6-0.8,0.9-1.2
		c0.4-0.4,0.8-0.7,1.3-1s1.1-0.4,1.8-0.4c0.6,0,1.1,0.1,1.5,0.4c0.4,0.3,0.7,0.6,0.9,0.9c0.2,0.4,0.3,0.7,0.4,1
		S247.5,75.2,247.5,75.5z M245.6,74.2c0-0.3-0.1-0.6-0.3-0.8c-0.2-0.2-0.4-0.3-0.7-0.3c-0.4,0-0.8,0.2-1.1,0.5
		c-0.3,0.4-0.5,0.7-0.7,1c-0.3,0.6-0.7,1.6-1.1,3c-0.4,1.3-0.8,2.6-1.1,3.8c-0.3,1.2-0.5,1.9-0.5,2.3c0,0.2,0.1,0.5,0.2,0.8
		c0.1,0.3,0.4,0.4,0.9,0.4c0.7,0,1.3-0.6,1.8-1.7c0.2-0.4,0.4-1.1,0.7-2.1c0.3-1,0.6-1.9,0.9-2.9s0.5-1.8,0.7-2.6
		C245.6,74.9,245.6,74.4,245.6,74.2z"/>
	<path class="st0" d="M258.8,72.3l-3.2,10.4c-0.2,0.7-0.3,1.1-0.3,1.3c0,0.2,0.1,0.3,0.2,0.4s0.3,0.1,0.5,0.2c0.2,0,0.5,0,0.9,0.1
		l-0.3,0.9h-5.8l0.3-0.9h0.4h0.2c0.3,0,0.5,0,0.7-0.1c0.1-0.1,0.3-0.2,0.4-0.4c0.1-0.2,0.2-0.6,0.4-1.1l2.1-7
		c0.1-0.4,0.2-0.7,0.2-0.7c0.1-0.3,0.1-0.5,0.1-0.6c0-0.3-0.1-0.5-0.4-0.5s-0.6-0.1-1-0.1h-0.7l0.3-0.8c0.9-0.1,1.6-0.2,2.1-0.2
		s0.8-0.2,1.1-0.3s0.6-0.3,0.9-0.5H258.8z"/>
	<path class="st0" d="M270.8,72.3l-3.2,10.4c-0.2,0.7-0.3,1.1-0.3,1.3c0,0.2,0.1,0.3,0.2,0.4s0.3,0.1,0.5,0.2c0.2,0,0.5,0,0.9,0.1
		l-0.3,0.9h-5.8l0.3-0.9h0.4h0.2c0.3,0,0.5,0,0.7-0.1c0.1-0.1,0.3-0.2,0.4-0.4c0.1-0.2,0.2-0.6,0.4-1.1l2.1-7
		c0.1-0.4,0.2-0.7,0.2-0.7c0.1-0.3,0.1-0.5,0.1-0.6c0-0.3-0.1-0.5-0.4-0.5s-0.6-0.1-1-0.1h-0.7l0.3-0.8c0.9-0.1,1.6-0.2,2.1-0.2
		s0.8-0.2,1.1-0.3s0.6-0.3,0.9-0.5H270.8z"/>
</g>
</svg>
